<svg id="Layer_1" data-name="Layer 1" xmlns="http://www.w3.org/2000/svg" viewBox="0 0 242.68 178.14"><defs><style>.cls-1{fill:#010101;}.cls-2{fill:#eb2227;}.cls-3{fill:#c7292d;}.cls-4{fill:#b82f32;}.cls-5{fill:#ae2124;}.cls-6{fill:#b62125;}.cls-7{fill:#b72125;}.cls-8{fill:#c5272a;}.cls-9{fill:#c02a2b;}.cls-10{fill:#c02026;}.cls-11{fill:#b52125;}.cls-12{fill:#c22b2c;}.cls-13{fill:#c2242a;}.cls-14{fill:#c5282b;}.cls-15{fill:#bc2026;}.cls-16{fill:#be2026;}.cls-17{fill:#bc2126;}.cls-18{fill:#bd2026;}.cls-19{fill:#c12b2d;}.cls-20{fill:#bb2026;}.cls-21{fill:#c42126;}.cls-22{fill:#c02327;}.cls-23{fill:#ab1f24;}.cls-24{fill:#c6242a;}.cls-25{fill:#cb2e2d;}.cls-26{fill:#c42c2b;}.cls-27{fill:#bf2026;}.cls-28{fill:#c62026;}.cls-29{fill:#c32026;}.cls-30{fill:#c72428;}.cls-31{fill:#eb2427;}.cls-32{fill:#b72025;}.cls-33{fill:#ab2024;}.cls-34{fill:#d02328;}.cls-35{fill:#b32225;}.cls-36{fill:#c42f2d;}.cls-37{fill:#c32f2d;}.cls-38{fill:#ea242d;}.cls-39{fill:#c32226;}.cls-40{fill:#c02227;}.cls-41{fill:#c0282a;}.cls-42{fill:#bf2428;}.cls-43{fill:#c3282a;}.cls-44{fill:#c82a2c;}.cls-45{fill:#b62228;}.cls-46{fill:#be2126;}.cls-47{fill:#ab2124;}.cls-48{fill:#c4292c;}.cls-49{fill:#c12b2f;}.cls-50{fill:#c42a2b;}.cls-51{fill:#c32126;}.cls-52{fill:#c12b2c;}.cls-53{fill:#c32529;}.cls-54{fill:#bb2126;}.cls-55{fill:#c12026;}.cls-56{fill:#b52025;}.cls-57{fill:#c62c2e;}.cls-58{fill:#bf2126;}.cls-59{fill:#bb2427;}.cls-60{fill:#c52127;}.cls-61{fill:#c42c2c;}.cls-62{fill:#c22026;}.cls-63{fill:#c12428;}.cls-64{fill:#c4262a;}.cls-65{fill:#b12125;}.cls-66{fill:#b72126;}.cls-67{fill:#c6292b;}.cls-68{fill:#bd2b2c;}.cls-69{fill:#c42327;}.cls-70{fill:#ea2426;}.cls-71{fill:#b02428;}.cls-72{fill:#e8272d;}.cls-73{fill:#c32729;}.cls-74{fill:#c32328;}.cls-75{fill:#c52327;}.cls-76{fill:#c22728;}.cls-77{fill:#c3282c;}.cls-78{fill:#cb2a2c;}.cls-79{fill:#bf2227;}.cls-80{fill:#b52426;}.cls-81{fill:#c42227;}.cls-82{fill:#c12226;}.cls-83{fill:#ba2126;}.cls-84{fill:#c62e2d;}.cls-85{fill:#ba2025;}.cls-86{fill:#c72b2b;}.cls-87{fill:#c5302e;}.cls-88{fill:#cb2728;}.cls-89{fill:#ac2124;}.cls-90{fill:#c0282b;}.cls-91{fill:#c42d2c;}.cls-92{fill:#bd2b2d;}.cls-93{fill:#b92025;}.cls-94{fill:#c52c2c;}.cls-95{fill:#b82226;}.cls-96{fill:#af2124;}.cls-97{fill:#c12528;}.cls-98{fill:#b42125;}.cls-99{fill:#c32829;}.cls-100{fill:#b82e32;}.cls-101{fill:#c3282b;}.cls-102{fill:#c5272c;}.cls-103{fill:#ae2125;}.cls-104{fill:#c52529;}.cls-105{fill:#c02328;}.cls-106{fill:#c52e2c;}.cls-107{fill:#e8272e;}.cls-108{fill:#c42d2d;}.cls-109{fill:#c22e2d;}.cls-110{fill:#be2f2e;}.cls-111{fill:#c3272c;}.cls-112{fill:#c53e39;}.cls-113{fill:#c22127;}.cls-114{fill:#eb242a;}.cls-115{fill:#ea242c;}.cls-116{fill:#ed252d;}.cls-117{fill:#ed2329;}.cls-118{fill:#ed2424;}.cls-119{fill:#c82227;}.cls-120{fill:#e02126;}.cls-121{fill:#c62327;}.cls-122{fill:#d12227;}.cls-123{fill:#de2127;}</style></defs><title>vectorcon</title><path d="M392.3,353.33c.32-.65,1.14-.85,1.77-1.19.89-.5,1.31-1.06,1-1.92-.25-.27.06-.64-.23-.91a11.35,11.35,0,0,1-.84-3.09c-.13-.61-.69-.57-1.24-.56h-8c-.44,0-1.11.18-.95-.54a8.47,8.47,0,0,1,.89-2.94c2.31-.14,4.62,0,6.93-.08.38,0,1.07.3,1.06-.42-.56-1.81-1.21-3.61-1.66-5.43-.7-2.86-1.47-5.7-2.4-8.5-.1-.31,0-.58-.07-.86-.37-.34,0-.81-.28-1.16a56,56,0,0,1-2-7.07,2.4,2.4,0,0,1,0-1.33,5.77,5.77,0,0,1,.6-2.08,1.45,1.45,0,0,1,1-.25h13.57a.66.66,0,0,1,.48.15c.37,2.19,1.21,4.3,1.78,6.45.33,1.26.76,2.51,1.15,3.76.54.27,0,.78.38,1.09.36,2.17,1.19,4.27,1.73,6.42.17.69.44,1.36.67,2a4,4,0,0,1,.6,1.81,37.74,37.74,0,0,0,1.55,5.54c.55.26,0,.78.38,1.09a53.28,53.28,0,0,0,2.36,8,1.72,1.72,0,0,0,1.18,1,7.46,7.46,0,0,1,1.93,1,1.68,1.68,0,0,1,.08,1.32c-.33.6-1.16.58-1.71.91a4.34,4.34,0,0,1-1.48.09H395.22a5,5,0,0,1-1.49-.08c-.75,0-1-.52-1.42-.92A2.32,2.32,0,0,1,392.3,353.33Z" transform="translate(-297.97 -243.04)"/><path class="cls-1" d="M371.25,355.58a1.8,1.8,0,0,1-1.88-1.53c-.21-1,.58-1.41,1.6-1.65.17-.35.59-.3.93-.37,2.76-1.11,3.61-3.21,4.32-5.4,1-3,2-6,3-9s1.94-5.87,3-8.78a49.32,49.32,0,0,1,1.91-5.43c.19-.16,0-.6.52-.5a14.75,14.75,0,0,0,.87,3.27c1,1.92.45,3.68-.2,5.56-2,5.67-3.81,11.37-5.66,17.06-.47,1.44.39,2.74,2.08,3.4a6.54,6.54,0,0,1,2.33,1.16,1.55,1.55,0,0,1,0,1.53l-1.32.71C378.92,355.71,375.09,355.71,371.25,355.58Z" transform="translate(-297.97 -243.04)"/><path class="cls-2" d="M301.87,309.08c0-.22-.11-.45.09-.66a.64.64,0,0,0,.28-.88,59.53,59.53,0,0,1,5.11-11.34c.41-.23.38-.61.52-.94a55.93,55.93,0,0,1,6.76-10.21c3-.17,5.92,0,8.88-.07H344a6.93,6.93,0,0,0,1.64.1c9,0,18,.2,27,.12a3.11,3.11,0,0,1,1.3.16A30.39,30.39,0,0,1,370.8,288c-.38.31-.77.6-1.17.89q-7.63,6.27-15.28,12.51c-2.09,1.7-4.22,3.36-6.33,5a1.3,1.3,0,0,0-.88.7l-.23.19a16,16,0,0,0-3.35,2.66c-1.78,1.82-4.1,3.21-6.08,4.88-4.56,3.86-9.31,7.57-14,11.33-1.32,1.06-2.66,2.1-4,3.14a1.89,1.89,0,0,0-1.14.91l0,0a2,2,0,0,0-1.12.92c-.74.42-1.08,1.18-1.93,1.5a9.26,9.26,0,0,0-1.36.92c-.85,1.18-2.28,1.89-3.41,2.85l-1,.89a9.91,9.91,0,0,1-2.18,1.81c-2.26,1.81-4.51,3.62-6.78,5.42-.34.27-.64.84-1.09.71-.63-.17-.51-.8-.56-1.27a10.3,10.3,0,0,0-.4-3.69,23,23,0,0,1-.42-4.53c.12-2.59.09-5.18,0-7.77a20.65,20.65,0,0,1,.41-4.29c.39-.55.11-1.13.16-1.7a31.59,31.59,0,0,1,1.22-6.27c.34-.26.15-.57.1-.87a32.64,32.64,0,0,1,1.24-4.25C301.65,310.15,301.64,309.58,301.87,309.08Z" transform="translate(-297.97 -243.04)"/><path class="cls-3" d="M370.42,288.2l3.16-2.75a3.28,3.28,0,0,0-1.53-.14H345.68c-.53,0-1.11.15-1.58-.19a6.18,6.18,0,0,1,2.27-.12c3,0,6.06-.11,9.09.07,6,0,11.94,0,17.91,0,.34,0,.7,0,.81.29s-.22.37-.41.52l-3.34,2.6c-.08-.05-.11-.1-.09-.16S370.39,288.2,370.42,288.2Z" transform="translate(-297.97 -243.04)"/><path class="cls-4" d="M355.46,285.06l-11.36.05-10.13,0c-.09,0-.12-.08-.1-.13s.06-.06.08-.06C341.13,284.87,348.3,284.86,355.46,285.06Z" transform="translate(-297.97 -243.04)"/><path class="cls-5" d="M334,284.89l0,.19H323.55c-.1-.05-.13-.09-.09-.13s.06-.07.09-.07Z" transform="translate(-297.97 -243.04)"/><path class="cls-6" d="M298.14,328a31.08,31.08,0,0,1,0,7.77A49.16,49.16,0,0,1,298.14,328Z" transform="translate(-297.97 -243.04)"/><path class="cls-7" d="M323.55,284.88v.2l-8.92,0c.16-.23.44-.24.72-.24Z" transform="translate(-297.97 -243.04)"/><path class="cls-8" d="M343.56,310a6.81,6.81,0,0,1,3.35-2.66A28.36,28.36,0,0,1,343.56,310Z" transform="translate(-297.97 -243.04)"/><path class="cls-9" d="M298.54,340.29l.22-.07c0,1.26.74,2.49.18,3.76A21.81,21.81,0,0,1,298.54,340.29Z" transform="translate(-297.97 -243.04)"/><path class="cls-10" d="M314,333.57c.36-.39.57-.93,1.36-.92A2,2,0,0,1,314,333.57Z" transform="translate(-297.97 -243.04)"/><path class="cls-11" d="M298.71,322a2.48,2.48,0,0,1,.06,1.76s-.08,0-.11,0a.34.34,0,0,1-.11-.07A4.27,4.27,0,0,1,298.71,322Z" transform="translate(-297.97 -243.04)"/><path class="cls-12" d="M301.87,309.08a1.52,1.52,0,0,1-.6,1.53A2.08,2.08,0,0,1,301.87,309.08Z" transform="translate(-297.97 -243.04)"/><path class="cls-13" d="M317.26,331.15c0-.58.41-.88,1.12-.92Z" transform="translate(-297.97 -243.04)"/><path class="cls-14" d="M318.36,330.25c0-.59.42-.89,1.14-.91Z" transform="translate(-297.97 -243.04)"/><path class="cls-15" d="M307.87,295.26c0,.38.19.82-.52.94A1.4,1.4,0,0,1,307.87,295.26Z" transform="translate(-297.97 -243.04)"/><path class="cls-16" d="M302.24,307.54c.26.37.41.72-.28.88Z" transform="translate(-297.97 -243.04)"/><path class="cls-17" d="M370.42,288.2v.24a.87.87,0,0,1-.8.45A1.28,1.28,0,0,1,370.42,288.2Z" transform="translate(-297.97 -243.04)"/><path class="cls-18" d="M300,314.86c.25.31.42.62-.1.87Z" transform="translate(-297.97 -243.04)"/><path class="cls-19" d="M347.14,307.14c0-.48.28-.72.88-.7Z" transform="translate(-297.97 -243.04)"/><path class="cls-2" d="M423.07,277.94l-.52-.41a1.43,1.43,0,0,1-.87-.69c-1.37-1.4-3.19-2.42-4.66-3.74a2.94,2.94,0,0,1-.83-.68,3.81,3.81,0,0,1-.41-.29l-11.18-9.19L399.86,259,396.13,256c-1.78-1.35-3.54-2.73-5.16-4.21-2.46-2-5.06-3.93-7.32-6.1a1,1,0,0,0-1.07-.23c-1.59.4-3.19.77-4.79,1.16a2.87,2.87,0,0,1-1.56.41,3.66,3.66,0,0,1-2,.36,112.76,112.76,0,0,0-18.63,6.41,8,8,0,0,1-2.29,1.05,53.07,53.07,0,0,0-6.46,3.18,94.1,94.1,0,0,0-13.76,8.92,4.73,4.73,0,0,1-1.7,1.26,53.57,53.57,0,0,0-6,5.08,1.45,1.45,0,0,1-.75.71,36.24,36.24,0,0,0-4.77,4.83c.13.77.88.38,1.3.38,6.07,0,12.14,0,18.21.15a36.14,36.14,0,0,1,4.77.08c5.55,0,11.1,0,16.65,0h22.27a1.19,1.19,0,0,0-.43.16c1.5,0,3,.09,4.5.1l20.81,0a4.22,4.22,0,0,1,1.18-.07,2.73,2.73,0,0,1,.67-.08,2.4,2.4,0,0,1,.69.09h12.51a3.13,3.13,0,0,0,1.42-.13C424.22,278.78,423.36,278.53,423.07,277.94Zm-38.93,1.49-.29,0h12.71C392.42,279.42,388.28,279.41,384.14,279.43Z" transform="translate(-297.97 -243.04)"/><path class="cls-20" d="M360.83,279.31H397v.26H382.69l-21.87-.06c-.08,0-.11-.09-.08-.13S360.8,279.31,360.83,279.31Z" transform="translate(-297.97 -243.04)"/><path class="cls-21" d="M319.92,278.79c.4.45,1,.29,1.51.29,5.87,0,11.74-.06,17.61.05,1.68,0,3.41-.36,5.07.17-.22.21-.58,0-.82.18l-18.72-.11c-1.5,0-3,0-4.51,0C319,279.34,319.65,279,319.92,278.79Z" transform="translate(-297.97 -243.04)"/><path class="cls-22" d="M409.85,279.55a2.63,2.63,0,0,1,.89.15h14.38l-2.05-1.76c-.18.77,1.14.84,1.14,1.59H409.44a2.37,2.37,0,0,0-1.44.17h1A2.57,2.57,0,0,1,409.85,279.55Z" transform="translate(-297.97 -243.04)"/><path class="cls-23" d="M343.29,279.48c.22-.21.53-.16.82-.18h16.72a1.34,1.34,0,0,1,0,.2Z" transform="translate(-297.97 -243.04)"/><path class="cls-24" d="M396.13,256a20,20,0,0,1-5.16-4.21A34.93,34.93,0,0,1,396.13,256Z" transform="translate(-297.97 -243.04)"/><path class="cls-25" d="M355.63,253.76a3,3,0,0,1-2.29,1.05A8.26,8.26,0,0,1,355.63,253.76Z" transform="translate(-297.97 -243.04)"/><path class="cls-26" d="M333.12,266.91a1.93,1.93,0,0,1-1.7,1.26A5.07,5.07,0,0,1,333.12,266.91Z" transform="translate(-297.97 -243.04)"/><path class="cls-27" d="M376.18,247.06c-.6.28-1.17.67-1.92.29l1.92-.47c.1,0,.13.08.1.12S376.21,247.06,376.18,247.06Z" transform="translate(-297.97 -243.04)"/><path class="cls-10" d="M422.55,277.53c-.65.06-.93-.17-.87-.69A1.79,1.79,0,0,1,422.55,277.53Z" transform="translate(-297.97 -243.04)"/><path class="cls-28" d="M376.18,247.06v-.18l1.61-.3C377.43,247.12,376.79,247.06,376.18,247.06Z" transform="translate(-297.97 -243.04)"/><path class="cls-29" d="M325.44,273.25c0,.43-.21.68-.75.71A1.57,1.57,0,0,1,325.44,273.25Z" transform="translate(-297.97 -243.04)"/><path class="cls-30" d="M417,273.1c-.5,0-.78-.27-.83-.68A.93.93,0,0,1,417,273.1Z" transform="translate(-297.97 -243.04)"/><path class="cls-31" d="M540.14,317.1c-.37-.27-.75-.54-1.09-.82l-7.13-5.88c-1,0-1.31-.72-1.64-1.35a.21.21,0,0,0-.07-.19,1.54,1.54,0,0,1-.74-.68,1.75,1.75,0,0,1-.86-.63L521,300.87a4.11,4.11,0,0,1-1.4-1.12l-1.44-1.25a1.64,1.64,0,0,1-1.18-1c-1.44-1.26-2.88-2.51-4.3-3.77-2.57-2.27-5.11-4.57-7.66-6.85a5.09,5.09,0,0,1-1.32-1.1l-8-7.12a2.45,2.45,0,0,1-1-.95,22.36,22.36,0,0,1-3.09-2.6,3.94,3.94,0,0,1-1.05-.88l-2.56-2.26c-.37-.27-.81-.48-1-.88-.43-.68-1.35-.94-1.94-1.51a45.67,45.67,0,0,0-4.46-4c-2.74-2-5.23-4.21-7.87-6.29-.54,0-.37.3-.4.51a7.52,7.52,0,0,1-.09,1.71c0,.74,0,1.48,0,2.22.09,3.2-.09,6.42.19,9.62a7.81,7.81,0,0,0,.18-1.35v15.1c0,4,0,8.06,0,12.08.3,1.32,0,2.66.19,4s-.12,2.55.2,3.81l1.79.81a3.12,3.12,0,0,1,1.5.74,101.78,101.78,0,0,0,16.19,5.84,3.87,3.87,0,0,1,1.73.37,3,3,0,0,1,1.5.43v0c.38.09.86,0,1.14.3l3,.71a1.44,1.44,0,0,1,1.35.25l.48.06a7.41,7.41,0,0,1,2.49.44.73.73,0,0,0,.6.15,1,1,0,0,1,1.1.18l1.65.24c.45,0,.91-.19,1.32.11a25.27,25.27,0,0,0,4.19.53c.6,0,1.23-.2,1.82.11a43.56,43.56,0,0,0,5.83.36c2.54-.12,5.08,0,7.62,0a36.76,36.76,0,0,1,4.92-.23c1.93-.34,3.93-.28,5.86-.65C539.46,317.52,540.32,318,540.14,317.1Zm-67.59-49v2.37A18.73,18.73,0,0,1,472.55,268.12Z" transform="translate(-297.97 -243.04)"/><path class="cls-32" d="M472.37,273.36v-6.21h.3v19.94c-.07.1-.15.1-.23,0Q472.41,280.22,472.37,273.36Z" transform="translate(-297.97 -243.04)"/><path class="cls-33" d="M472.44,287.09h.23q0,6.11,0,12.22c.14.23.18.42-.24.45Z" transform="translate(-297.97 -243.04)"/><path class="cls-34" d="M472.47,299.76l.24-.45c.54,1.24.12,2.53.24,3.79-.11.09-.14.24-.32.27A18.13,18.13,0,0,1,472.47,299.76Z" transform="translate(-297.97 -243.04)"/><path class="cls-35" d="M520.66,318.59a70.08,70.08,0,0,1,7.67-.16q.13.06.09.12a.12.12,0,0,1-.09.06A72.68,72.68,0,0,1,520.66,318.59Z" transform="translate(-297.97 -243.04)"/><path class="cls-36" d="M533.27,318.22l5.76-.66c.1,0,.13.09.11.14s0,.09-.08.09c-1.9.37-3.85.43-5.79.61-.09,0-.11-.08-.09-.12A.12.12,0,0,1,533.27,318.22Z" transform="translate(-297.97 -243.04)"/><path class="cls-37" d="M533.27,318.22v.18l-4.94.21v-.18A23.29,23.29,0,0,1,533.27,318.22Z" transform="translate(-297.97 -243.04)"/><path class="cls-38" d="M531.92,310.4c-1.14.31-1.7-.16-1.64-1.35A7.48,7.48,0,0,1,531.92,310.4Z" transform="translate(-297.97 -243.04)"/><path class="cls-39" d="M472.63,303.37l.32-.27V307C472.19,305.82,472.71,304.58,472.63,303.37Z" transform="translate(-297.97 -243.04)"/><path class="cls-40" d="M472.68,259.3c-.35-.47-.55-.28-.56.12v.24a1.49,1.49,0,0,1,0,1.1c0,.26,0,.51,0,.76C472.79,260.85,472,260,472.68,259.3Z" transform="translate(-297.97 -243.04)"/><path class="cls-41" d="M501.66,316.47a6.19,6.19,0,0,1,2.57.26s0,.07,0,.1-.05.05-.08.08A9.85,9.85,0,0,1,501.66,316.47Z" transform="translate(-297.97 -243.04)"/><path class="cls-42" d="M521,300.87a1.51,1.51,0,0,1-1.4-1.12A3,3,0,0,1,521,300.87Z" transform="translate(-297.97 -243.04)"/><path class="cls-43" d="M505,286.85a1.53,1.53,0,0,1-1.32-1.1A2.39,2.39,0,0,1,505,286.85Z" transform="translate(-297.97 -243.04)"/><path class="cls-44" d="M494,314.62c.61.08,1.33-.07,1.66.55a6.13,6.13,0,0,1-1.9-.5A.15.15,0,0,1,494,314.62Z" transform="translate(-297.97 -243.04)"/><path class="cls-45" d="M539.06,317.79l0-.24c.42-.07,1,.14,1.11-.45.31,0,.52.17.52.4s-.31.24-.52.25S539.42,317.78,539.06,317.79Z" transform="translate(-297.97 -243.04)"/><path class="cls-46" d="M487.93,271.94c-.56-.13-1.08-.28-1-.88A2.07,2.07,0,0,1,487.93,271.94Z" transform="translate(-297.97 -243.04)"/><path class="cls-47" d="M513,318.12a3.63,3.63,0,0,1,1.88-.06s0,.06,0,.09,0,.05-.08.08A6.14,6.14,0,0,1,513,318.12Z" transform="translate(-297.97 -243.04)"/><path class="cls-48" d="M491.54,275.08a1.08,1.08,0,0,1-1.05-.88A1.48,1.48,0,0,1,491.54,275.08Z" transform="translate(-297.97 -243.04)"/><path class="cls-49" d="M495.64,278.63c-.65-.09-1-.41-1-.95A2.45,2.45,0,0,1,495.64,278.63Z" transform="translate(-297.97 -243.04)"/><path class="cls-10" d="M499.83,316.16c.53-.21,1.07-.43,1.35.25Z" transform="translate(-297.97 -243.04)"/><path class="cls-15" d="M494,314.62l-.24.05-1.33-.3C493.05,314.05,493.51,314.4,494,314.62Z" transform="translate(-297.97 -243.04)"/><path class="cls-50" d="M474.74,307.79c.67,0,1.27.14,1.5.74A3.59,3.59,0,0,1,474.74,307.79Z" transform="translate(-297.97 -243.04)"/><path class="cls-51" d="M507.5,317.48c.46-.12.94-.46,1.32.11Z" transform="translate(-297.97 -243.04)"/><path class="cls-52" d="M530.21,308.86q-.8,0-.75-.69A1.35,1.35,0,0,1,530.21,308.86Z" transform="translate(-297.97 -243.04)"/><path class="cls-53" d="M529.47,308.18c-.55,0-.8-.21-.86-.63A1.18,1.18,0,0,1,529.47,308.18Z" transform="translate(-297.97 -243.04)"/><path class="cls-54" d="M495.65,315.15c.43,0,.94-.25,1.14.3C496.43,315.31,495.94,315.46,495.65,315.15Z" transform="translate(-297.97 -243.04)"/><path class="cls-55" d="M504.75,317.06c.45-.24.86-.37,1.1.18Z" transform="translate(-297.97 -243.04)"/><path class="cls-2" d="M420.41,420.5a.75.75,0,0,1-.64.13,10.57,10.57,0,0,0-3.37.14c-.58.14-1.23-.17-1.79.17a6.53,6.53,0,0,1-2.25.14c-3-.11-6-.1-9,0a34,34,0,0,1-5.53-.36.36.36,0,0,1,.29-.14,17.16,17.16,0,0,0-2.18.06,1.35,1.35,0,0,1-.87-.15,13,13,0,0,0-3.52-.29l-3.88-.6c-.3-.31-.78,0-1.11-.21s-.86-.08-1.28-.18a5.05,5.05,0,0,0-2.23-.34l-.59-.15a3.41,3.41,0,0,0-1.87-.31l-2.48-.59a4.31,4.31,0,0,0-1.71-.42,16.5,16.5,0,0,1-3.52-.88,13,13,0,0,0-3-.88l.06,0-.06,0a1.59,1.59,0,0,0-1.32-.34,114.07,114.07,0,0,1-18.63-7.52,3.78,3.78,0,0,1-.27-2.07c.27-9.75.11-19.5.08-29.25q0-7,0-14c0-1.06,0-2.13,0-3.37l19.07,15.56a1.79,1.79,0,0,0,.87.64v0a2.83,2.83,0,0,0,1.38,1.13h0a5.65,5.65,0,0,0,1.91,1.59c2,1.46,3.67,3.18,5.55,4.73s3.69,3,5.53,4.46q5.92,4.82,11.82,9.66c.47.39,1,.72,1.49,1.08a60.64,60.64,0,0,0,5.73,4.8c1,.37,1.43,1.2,2.16,1.79,2.82,2.29,5.6,4.61,8.4,6.92s5.76,4.68,8.63,7a2.72,2.72,0,0,0,.83.66c.31.46,1.17.48,1.32,1.07h0l-2.13.16C421.62,420.41,421,420.19,420.41,420.5Z" transform="translate(-297.97 -243.04)"/><path class="cls-56" d="M349.68,376.46c.32.36.18.78.18,1.18q0,15.08,0,30.14c-.35,0-.32-.2-.31-.39a5.42,5.42,0,0,1,0-2.37c0-3.32-.05-6.64,0-10,0-5.8,0-11.6.06-17.39C349.59,377.26,349.65,376.86,349.68,376.46Z" transform="translate(-297.97 -243.04)"/><path class="cls-57" d="M403,402.74c-1.74-.82-2.87-2.17-4.3-3.26-.57-.43-1.39-.76-1.43-1.54A60.88,60.88,0,0,1,403,402.74Z" transform="translate(-297.97 -243.04)"/><path class="cls-58" d="M403.34,421.08a55.3,55.3,0,0,1,7.17-.16,3.53,3.53,0,0,1,1.85.16Q407.85,421.28,403.34,421.08Z" transform="translate(-297.97 -243.04)"/><path class="cls-22" d="M416.21,420.69a7.11,7.11,0,0,1,3.55-.06l-3.55.25c-.09,0-.12-.09-.09-.13A.12.12,0,0,1,416.21,420.69Z" transform="translate(-297.97 -243.04)"/><path class="cls-59" d="M391.53,420.2c1.21-.47,2.37.14,3.56.11a.11.11,0,0,1,0,.09s-.05.06-.07.09A20.64,20.64,0,0,1,391.53,420.2Z" transform="translate(-297.97 -243.04)"/><path class="cls-60" d="M372.91,378a2.41,2.41,0,0,1-1.91-1.59A8.73,8.73,0,0,1,372.91,378Z" transform="translate(-297.97 -243.04)"/><path class="cls-61" d="M369.82,415.64a5.1,5.1,0,0,1,3,.88A12.7,12.7,0,0,1,369.82,415.64Z" transform="translate(-297.97 -243.04)"/><path class="cls-51" d="M395.92,420.64a8.3,8.3,0,0,1,2.78-.15c-.26.31-.62.14-.89.23Z" transform="translate(-297.97 -243.04)"/><path class="cls-62" d="M383,418.87a2.64,2.64,0,0,1,2.2.26c.09.05.13.09.1.13s-.07.06-.1.06Z" transform="translate(-297.97 -243.04)"/><path class="cls-2" d="M349.57,405c0,.79,0,1.58,0,2.37A3.7,3.7,0,0,1,349.57,405Z" transform="translate(-297.97 -243.04)"/><path class="cls-63" d="M380.57,418.41c.69-.41,1.29.09,1.94.13,0,0,0,.06,0,.09s0,.06-.08.09Z" transform="translate(-297.97 -243.04)"/><path class="cls-60" d="M371,376.43a1.34,1.34,0,0,1-1.38-1.13A4.53,4.53,0,0,1,371,376.43Z" transform="translate(-297.97 -243.04)"/><path class="cls-64" d="M376.38,417.4a1.8,1.8,0,0,1,1.71.42A4.63,4.63,0,0,1,376.38,417.4Z" transform="translate(-297.97 -243.04)"/><path class="cls-65" d="M420.41,420.5c.56-.52,1.2-.25,1.82-.12A6.16,6.16,0,0,1,420.41,420.5Z" transform="translate(-297.97 -243.04)"/><path class="cls-66" d="M416.21,420.69v.19l-1.6.06c-.07-.07-.57-.12-.11-.22A8.84,8.84,0,0,1,416.21,420.69Z" transform="translate(-297.97 -243.04)"/><path class="cls-67" d="M368.5,415.3a.91.91,0,0,1,1.32.34Z" transform="translate(-297.97 -243.04)"/><path class="cls-68" d="M386.53,419.32c.35.17.94-.3,1.12.28a2.19,2.19,0,0,1-1.36-.22Q386.36,419.23,386.53,419.32Z" transform="translate(-297.97 -243.04)"/><path class="cls-55" d="M369.64,375.32c-.55,0-.81-.21-.87-.64A1.3,1.3,0,0,1,369.64,375.32Z" transform="translate(-297.97 -243.04)"/><path class="cls-69" d="M423.05,419.14c-.51,0-.78-.26-.82-.66A.92.92,0,0,1,423.05,419.14Z" transform="translate(-297.97 -243.04)"/><path class="cls-55" d="M386.53,419.32l-.24.06-1.06-.06v-.19C385.67,419.19,386.16,419,386.53,419.32Z" transform="translate(-297.97 -243.04)"/><path class="cls-31" d="M440.63,247.12l3.85,1a13.87,13.87,0,0,1,2.73.9,4.51,4.51,0,0,0,1.87.54,6.09,6.09,0,0,1,1.94.81,13.86,13.86,0,0,0,2.07.65,47,47,0,0,1,7.89,3.29c1.17.65,2.54,1,3.8,1.59.5.22,1.11.38,1.25.93-.09,3.85-.15,7.7,0,11.55q0,10-.08,20a1,1,0,0,1-.11.32,9.06,9.06,0,0,1-.16-3.07c0-1.51,0-3,0-4.54q0,11.15,0,22.3c0,.45.22,1-.42,1.31a9.79,9.79,0,0,1-1.93-1.55c-.1-.37-.54-.56-.7-.9,0-.85-.85-1-1.55-1.36-.27,0-.48-.23-.77-.23-2-1.36-3.54-3.06-5.44-4.49-.24-.31-.11-.48.33-.51a1.89,1.89,0,0,1,.35.17c0-.07-.09-.1-.19-.1a.64.64,0,0,0-.79.06l-.27-.22c-.05-.36-.33-.67-.37-1,0-.08.19-.06.15-.17a.56.56,0,0,1-.16.14,1.55,1.55,0,0,1-1.18-.1,29.24,29.24,0,0,1-3.92-3.3c.13-.56-.44-1-.3-1.61.46-.18.88-.37.21-.76s-1.16-.7-1.16-1.39c0-.31-.4-.37-.69-.48-.72-.28-1.15-.72-1-1.41.06-.38.36-.59.81-.65a1.51,1.51,0,0,1,1.7.81,1.52,1.52,0,0,0-2.2-.69,2.24,2.24,0,0,1-2.38-.05c-.75-.48-.63-1.09-.44-1.72a1.71,1.71,0,0,1,.21-.26c.32-.46.65-1.07.15-1.41a2.37,2.37,0,0,0-2.08,0,2.82,2.82,0,0,1-2.79-.18c-.72-.36-1.35-.93-2.34-.45-.13.07-.39-.13-.6-.2-.6-.26-.68-.91-1.31-1.15-.3-.55.1-.69.66-.73a.75.75,0,0,1,.45.59.69.69,0,0,0-.26-.49c-.61,0-1-.75-1.68-.34a4.25,4.25,0,0,1-.86-.33v0a4.27,4.27,0,0,0-1.6-1.36c-1.91-1-3.12-2.65-4.82-3.88-2.93-2.13-5.58-4.51-8.32-6.8-3.79-3.18-7.84-6.15-11.43-9.48-.17-.16-.55-.22-.68-.47a6.45,6.45,0,0,0-2.2-1.81c-2.14-1.67-4.15-3.44-6.25-5.13-1.53-1.24-3-2.57-4.64-3.69a3.71,3.71,0,0,1-.94-.91c-.36-1,.87-.4,1.12-.77l1.13-.16a16,16,0,0,0,4.31-.29,55,55,0,0,1,6.67-.35c3.93-.08,7.84.36,11.77.22l.62.14c.58.35,1.3-.05,1.88.23h0a4.77,4.77,0,0,0,2.19.07,12.26,12.26,0,0,1,2.78.38c.43.29.95.06,1.41.15a7.07,7.07,0,0,0,2.67.35,1.32,1.32,0,0,1,.83.17,4.35,4.35,0,0,0,2.18.39,4.21,4.21,0,0,0,2.2.34l.55.16c.05.22.3.27.49.37a4.78,4.78,0,0,1,.61.38c.1.07.09.25.3.23a2.58,2.58,0,0,1-.14-.39c0-.2.19-.25.38-.29,1,.6,2.34.16,3.3.81C439.69,247,440.09,247.28,440.63,247.12Z" transform="translate(-297.97 -243.04)"/><path class="cls-70" d="M448.56,289.53c.62.47.89,1,.26,1.58a7.58,7.58,0,0,1-2.26-1.68c-3.58-2.91-7.12-5.84-10.67-8.77a2.91,2.91,0,0,1,3.07.42c.53.78,1.63,1,2.33,1.66,2.26,2.06,4.79,3.91,7.11,5.93C448.7,288.93,448.93,289.19,448.56,289.53Z" transform="translate(-297.97 -243.04)"/><path class="cls-15" d="M465.26,304.7a2.3,2.3,0,0,0,.29-1.51q0-10.83,0-21.66a1.54,1.54,0,0,1,.3-1.09v8.26c0,5.22,0,10.45,0,15.68C465.87,304.71,465.91,305.15,465.26,304.7Z" transform="translate(-297.97 -243.04)"/><path class="cls-58" d="M466.06,268.41c-.26-.2-.23-.47-.23-.73,0-3.4,0-6.79,0-10.19a2.17,2.17,0,0,1,.19-.63c.25,2.79.05,5.57.09,8.36C466.14,266.28,466.08,267.35,466.06,268.41Z" transform="translate(-297.97 -243.04)"/><path class="cls-71" d="M417,243.35a12.83,12.83,0,0,1-4.19.11c-2.27-.2-4.54-.11-6.81-.17a3.52,3.52,0,0,1-.77-.16C409.18,242.88,413.1,243.21,417,243.35Z" transform="translate(-297.97 -243.04)"/><path class="cls-70" d="M435.4,278.86c-.52,0-.79.23-.82.65-.33,0-.42-.19-.56-.36s-.42-.43-.27-.73c.36-.15.38-.68.88-.6s.08.47.16.68.4.24.61.36Z" transform="translate(-297.97 -243.04)"/><path class="cls-6" d="M398.58,243.48a8.72,8.72,0,0,1-4.31.29A34.54,34.54,0,0,1,398.58,243.48Z" transform="translate(-297.97 -243.04)"/><path class="cls-72" d="M452.74,294.41c.44-.24.87.1,1.3,0,.08.39.58.71.26,1.15A3.11,3.11,0,0,1,452.74,294.41Z" transform="translate(-297.97 -243.04)"/><path class="cls-62" d="M403.85,254.43a3,3,0,0,1,2.2,1.81Z" transform="translate(-297.97 -243.04)"/><path class="cls-73" d="M428.55,244.66c-1,.45-1.84-.09-2.75-.26-.09,0-.11-.08-.09-.12a.14.14,0,0,1,.09-.05Z" transform="translate(-297.97 -243.04)"/><path class="cls-74" d="M460.31,300.66c.19-.25.39-.05.58,0,.6.36,1.45.56,1.41,1.36a.34.34,0,0,1-.35,0A6.58,6.58,0,0,1,460.31,300.66Z" transform="translate(-297.97 -243.04)"/><path class="cls-75" d="M434.57,246.18c-.37-.05-.68-.11-.26-.46l1.64.3-.27.18A1.21,1.21,0,0,1,434.57,246.18Z" transform="translate(-297.97 -243.04)"/><path class="cls-15" d="M392,244.7c.13-.63.78-.41,1.24-.55s-.06-.15-.12-.22c-.28,0-.56,0-.83,0a1,1,0,0,1-.25.06,4,4,0,0,1-.48.08.25.25,0,0,0,0,.07C391.43,244.45,391.77,244.57,392,244.7Z" transform="translate(-297.97 -243.04)"/><path class="cls-51" d="M431.54,245.27a7.86,7.86,0,0,1-2.37-.22s-.05,0-.07-.06l.28-.16,2.18.32Z" transform="translate(-297.97 -243.04)"/><path class="cls-76" d="M431.54,245.27a.5.5,0,0,0,0-.12l2.2.41A2.28,2.28,0,0,1,431.54,245.27Z" transform="translate(-297.97 -243.04)"/><path class="cls-77" d="M431.3,276.87a1.84,1.84,0,0,1,1.6,1.36A5.31,5.31,0,0,1,431.3,276.87Z" transform="translate(-297.97 -243.04)"/><path class="cls-78" d="M453.09,251.05a3,3,0,0,1-2.07-.65A3.76,3.76,0,0,1,453.09,251.05Z" transform="translate(-297.97 -243.04)"/><path class="cls-20" d="M449.08,249.59c-.78.37-1.26-.32-1.93-.36a.14.14,0,0,1,0-.1s.05,0,.08-.08A5.86,5.86,0,0,1,449.08,249.59Z" transform="translate(-297.97 -243.04)"/><path class="cls-79" d="M462,302l.32,0c.32-.12.4.1.53.24.18.31.63.51.53.93Z" transform="translate(-297.97 -243.04)"/><path class="cls-16" d="M421.69,243.78a2.55,2.55,0,0,1-2.19-.07A7.64,7.64,0,0,1,421.69,243.78Z" transform="translate(-297.97 -243.04)"/><path class="cls-80" d="M419.52,243.72l-1.93-.06s0-.06,0-.08.05-.06.07-.09C418.28,243.51,419,243.3,419.52,243.72Z" transform="translate(-297.97 -243.04)"/><path class="cls-46" d="M433.75,278.42l.27.73-1.13-.94Z" transform="translate(-297.97 -243.04)"/><path class="cls-10" d="M425.8,244.23v.17a5.65,5.65,0,0,1-1.43,0c-.48-.12,0-.15.1-.21Z" transform="translate(-297.97 -243.04)"/><path class="cls-72" d="M455.41,295.75c-.34,0-.53.14-.54.42-.4,0-.28-.21-.3-.38s0-.37.3-.39.43.17.54.36Z" transform="translate(-297.97 -243.04)"/><path class="cls-10" d="M440.63,247.12a1,1,0,0,1-1.38-.29A4.19,4.19,0,0,1,440.63,247.12Z" transform="translate(-297.97 -243.04)"/><path class="cls-31" d="M446,321.14a4.35,4.35,0,0,0-3.52-2.86,2.12,2.12,0,0,1-.09-1c0-2.1,0-2.1,2.59-2.1a29.64,29.64,0,0,1,4.12.77c2.34.38,4,1.68,5.73,2.83.4.22.7.54,1.12.74.06.05.07.1,0,.15a9.54,9.54,0,0,0,1.29.95,14.5,14.5,0,0,1,4.08,6,5.21,5.21,0,0,0,.66,2.17,9.64,9.64,0,0,1,.72,3,57.26,57.26,0,0,0,0,6.68l-.13.4a4.58,4.58,0,0,0-.45,2.23,18.21,18.21,0,0,1-4.38,8.05,1.42,1.42,0,0,0-.7.69c-1.66,1.4-3.16,2.95-5.44,3.77a13,13,0,0,0-2.23,1,9.61,9.61,0,0,1-2.78.75,2.64,2.64,0,0,0-1.62.07,1.39,1.39,0,0,1-.86.13c-.55-.28-1.53.41-1.77-.53a13.39,13.39,0,0,1,.1-2.61c1.07-.37,2.3-.52,2.91-1.48.6-.31.63-.82.69-1.31l0-.23a2.18,2.18,0,0,0,.37-1.39V323.09a1.73,1.73,0,0,0-.13-.87C446.07,321.9,446.49,321.42,446,321.14Z" transform="translate(-297.97 -243.04)"/><path class="cls-81" d="M446.41,322c.39.35.22.77.22,1.16q0,12.48,0,24.94c0,.42.36,1-.48,1.23.06-.88.16-1.77.16-2.65q0-12.09,0-24.19C446.23,322.31,446.19,322.14,446.41,322Z" transform="translate(-297.97 -243.04)"/><path class="cls-82" d="M462.76,338.45a21.08,21.08,0,0,1,0-6.68A33.89,33.89,0,0,1,462.76,338.45Z" transform="translate(-297.97 -243.04)"/><path class="cls-83" d="M445.26,315.33c-2.73,0-2.73,0-2.74,2.18,0,.26,0,.52,0,.77-.73-.94-.2-2-.3-3,0-.3.37-.27.63-.26l2.45.08c.06,0,.08.09.06.13S445.29,315.33,445.26,315.33Z" transform="translate(-297.97 -243.04)"/><path class="cls-84" d="M445.26,315.33a1.34,1.34,0,0,0,0-.2,9.21,9.21,0,0,1,3.84.85Z" transform="translate(-297.97 -243.04)"/><path class="cls-85" d="M462,328.81a2.41,2.41,0,0,1-.66-2.17A6.81,6.81,0,0,1,462,328.81Z" transform="translate(-297.97 -243.04)"/><path class="cls-86" d="M462.18,341.08a2.09,2.09,0,0,1,.45-2.23A6.38,6.38,0,0,1,462.18,341.08Z" transform="translate(-297.97 -243.04)"/><path class="cls-82" d="M442.5,352.35c0,.92,0,1.84,0,2.76a.18.18,0,0,1-.29,0C442.25,354.2,441.8,353.24,442.5,352.35Z" transform="translate(-297.97 -243.04)"/><path class="cls-87" d="M449.43,354.54a3.31,3.31,0,0,1,2.23-1A6,6,0,0,1,449.43,354.54Z" transform="translate(-297.97 -243.04)"/><path class="cls-88" d="M457.29,320.65a1.59,1.59,0,0,1-1.29-.95A1.59,1.59,0,0,1,457.29,320.65Z" transform="translate(-297.97 -243.04)"/><path class="cls-89" d="M442.23,355.13l.29,0c.44.44,1.18,0,1.65.38C443.52,355.38,442.64,356.09,442.23,355.13Z" transform="translate(-297.97 -243.04)"/><path class="cls-55" d="M445,355.36a.61.61,0,0,1-.13,0l-.16-.13a3,3,0,0,1,1.91.09Z" transform="translate(-297.97 -243.04)"/><path class="cls-90" d="M446.1,349.56c.28.61.06,1.05-.69,1.31Z" transform="translate(-297.97 -243.04)"/><path class="cls-91" d="M456,319.55a1.29,1.29,0,0,1-1.12-.74A1.16,1.16,0,0,1,456,319.55Z" transform="translate(-297.97 -243.04)"/><path class="cls-92" d="M446.41,322l-.08.49a2.82,2.82,0,0,1-.32-1.35C446.57,321.3,446.29,321.71,446.41,322Z" transform="translate(-297.97 -243.04)"/><path class="cls-93" d="M457.1,349.82c-.05-.42.16-.67.7-.69A1.61,1.61,0,0,1,457.1,349.82Z" transform="translate(-297.97 -243.04)"/><path class="cls-31" d="M419,316c.16-.55.67-.74,1.28-.83,5.59.12,11.18,0,16.78.06.47,0,1-.18,1.41.19a3.5,3.5,0,0,1,0,1.29,3.78,3.78,0,0,0-.07,1.11q0,17,0,33.92a3.69,3.69,0,0,0,.07,1.1,13.18,13.18,0,0,1,0,2.35c-.35.46-.91.25-1.36.25-5.51,0-11,0-16.53,0-.57-.13-1.28-.07-1.46-.72a2.71,2.71,0,0,1,0-1.52c.06-.58.72-.66,1.16-.72a3.49,3.49,0,0,0,2.18-1.17c.21-.25.06-.57.21-.83.17-.66-.19-1.36.28-2a1.7,1.7,0,0,0,1-1.7c0-8.3,0-16.59,0-24.89A2.87,2.87,0,0,0,423,319.3a1.91,1.91,0,0,1-.63-.18c-.18-.69-1-.65-1.56-.84-.75-.26-1.52-.44-1.77-1.18A1.76,1.76,0,0,0,419,316Z" transform="translate(-297.97 -243.04)"/><path class="cls-10" d="M438.4,316.66l0-1.12a.16.16,0,0,1,.28,0c0,.48.08.95.08,1.43q0,18.58,0,37.15c0,.34,0,.67-.07,1a.17.17,0,0,1-.28,0l0-2.24a1.65,1.65,0,0,1-.11-1q0-17.13,0-34.26A1.65,1.65,0,0,1,438.4,316.66Z" transform="translate(-297.97 -243.04)"/><path class="cls-94" d="M422.33,319.12l.46,0a1,1,0,0,1,.38.8q0,13.67,0,27.33c0,1.13-.26,2.26-.34,3.4,0,.25,0,.53-.28.7q0-15.18,0-30.35A4.54,4.54,0,0,0,422.33,319.12Z" transform="translate(-297.97 -243.04)"/><path class="cls-95" d="M438.71,315.54h-.28c-.41-.36-.94-.21-1.42-.21H421.75a2.45,2.45,0,0,1-1.44-.16,15.33,15.33,0,0,1,3.25-.11c4.67,0,9.34,0,14,0C438,315.07,438.8,314.67,438.71,315.54Z" transform="translate(-297.97 -243.04)"/><path class="cls-96" d="M438.43,355.12h.28c.09.25,0,.45-.35.44-5.91-.05-11.83.16-17.73-.1a3,3,0,0,1,1.47-.13h14.77C437.39,355.32,438,355.48,438.43,355.12Z" transform="translate(-297.97 -243.04)"/><path class="cls-97" d="M419.2,353.22l0,1.52A1,1,0,0,1,419.2,353.22Z" transform="translate(-297.97 -243.04)"/><path class="cls-15" d="M419,316a.77.77,0,0,1,0,1.11A1.27,1.27,0,0,1,419,316Z" transform="translate(-297.97 -243.04)"/><path class="cls-31" d="M399.5,392.22c-2-2-4.42-3.72-6.62-5.59l-1.66-1.44c0-.58.55-.47,1-.51,1.05-.08,2.09.11,3.14.11h24.45a3,3,0,0,0,1.08-.08h.85a7.73,7.73,0,0,0,.94.17c5.8,0,11.59,0,17.38,0a23.41,23.41,0,0,0,4.35,0,25.64,25.64,0,0,1,3.92.08,7.3,7.3,0,0,0,2.51,0,6.54,6.54,0,0,1,1.4,0c1.64.12,3.28.06,4.92,0a6.84,6.84,0,0,1,1.63-.09h19.87c1.56,0,3.12,0,4.68,0,3.53.21,7.07,0,10.6.1.57,0,1.2-.14,1.69.25l.12.18c-2.34,2.44-4.78,4.8-7.36,7.07a2.47,2.47,0,0,1-.56.29A27.35,27.35,0,0,0,485,395.4a39.93,39.93,0,0,1-3.78,2.87,1.54,1.54,0,0,0-.89.59c-.61.32-.89.93-1.59,1.17a1.71,1.71,0,0,0-.84.56,46.24,46.24,0,0,1-6.27,3.91,1.45,1.45,0,0,0-.86.53,76,76,0,0,1-10.94,5.48,7.07,7.07,0,0,0-1,.56l-5.41,2a.85.85,0,0,0-.81.28,11.31,11.31,0,0,1-2.66.92,2.65,2.65,0,0,0-1.42.47,9.84,9.84,0,0,1-2.81.84c-.25.09-.6-.06-.76.23a35.6,35.6,0,0,1-6.2,1.55,4.81,4.81,0,0,0-1.78.44c-1.34.33-2.68.66-4,1-.8.21-1.16-.25-1.6-.61l-12.87-10.55c-2.18-1.78-4.34-3.58-6.51-5.38a12.15,12.15,0,0,0-3-2.48c-1.69-1.2-3.15-2.56-4.68-3.87A31.33,31.33,0,0,0,399.5,392.22Z" transform="translate(-297.97 -243.04)"/><path class="cls-98" d="M478.72,385.11h-19.9a3.59,3.59,0,0,0-1.72.2c-1.65-.27-3.33.1-5-.2h-1.38a4.77,4.77,0,0,1-2.19,0h-4.11a7.56,7.56,0,0,1-2.07.1c-.29,0-.54-.08-.34-.39a54,54,0,0,1,5.83.05c3.77-.17,7.55,0,11.32,0,6.51,0,13,0,19.52.07.09,0,.13.08.1.12S478.75,385.11,478.72,385.11Z" transform="translate(-297.97 -243.04)"/><path class="cls-99" d="M419.09,384.65h-2.8a2.42,2.42,0,0,1-1.27.06l-.39-.07h-.49a24.19,24.19,0,0,1-4.34,0l-.6.05a25.69,25.69,0,0,1-5.26-.1h-.15l-5.39,0-1,0c-.3,0-.59,0-.88,0-1.53,0-3.06,0-4.58,0a2.38,2.38,0,0,1-.56-.07l-.83,0a1.18,1.18,0,0,0,.67.64c.45-.48,1.09-.28,1.65-.28,8.8,0,17.61,0,26.41,0a2.59,2.59,0,0,0,1.58-.18Z" transform="translate(-297.97 -243.04)"/><path class="cls-31" d="M447.87,384.88l-5.85.06c-2,.15-4.08.05-6.11.06-3.28,0-6.55,0-9.83,0-.21,0-.31-.09-.28-.27q10.77,0,21.54.06A3.26,3.26,0,0,1,447.87,384.88Z" transform="translate(-297.97 -243.04)"/><path class="cls-100" d="M478.72,385.11c0-.06,0-.13,0-.19l16.87.07c1,0,.54.31.14.57l-.09-.06c-.36-.43-.9-.26-1.37-.27h-9.53a3.37,3.37,0,0,1-1.34-.09Z" transform="translate(-297.97 -243.04)"/><path class="cls-67" d="M485,395.4c.47-1.16,1.7-1.75,2.76-2.48A10.32,10.32,0,0,1,485,395.4Z" transform="translate(-297.97 -243.04)"/><path class="cls-99" d="M425.8,384.73v.16a12.07,12.07,0,0,1-3.55,0l-.54-.18Z" transform="translate(-297.97 -243.04)"/><path class="cls-101" d="M480.37,398.86c.05-.44.35-.64.89-.59A1.3,1.3,0,0,1,480.37,398.86Z" transform="translate(-297.97 -243.04)"/><path class="cls-16" d="M477.94,400.59c0-.45.35-.58.84-.56A1.74,1.74,0,0,1,477.94,400.59Z" transform="translate(-297.97 -243.04)"/><path class="cls-85" d="M470.81,405c0-.45.37-.57.86-.53A1.56,1.56,0,0,1,470.81,405Z" transform="translate(-297.97 -243.04)"/><path class="cls-2" d="M341.89,403.35l-2.21-1.42a1.7,1.7,0,0,0-.85-.56,97,97,0,0,1-11.68-8.77c-.61-.52-1.15-1.1-1.72-1.66a3.51,3.51,0,0,0-1.16-1.1,15.77,15.77,0,0,1-2.7-2.65,1.8,1.8,0,0,0-.86-.91,37,37,0,0,1-4.38-4.85,56.25,56.25,0,0,1-5.7-7.86c.19-.31.62-.23.92-.37-.49-.83-.49-.83-1.39-.32-.08,0-.11-.09-.08-.16-.18-.3-.09-.71-.55-.91a31.64,31.64,0,0,1-3.29-5.92,2.28,2.28,0,0,0-.59-1.19,3.66,3.66,0,0,1-.8-1.73,2.72,2.72,0,0,0-.34-.88,1.85,1.85,0,0,0-.49-.95,21.37,21.37,0,0,1-1.63-4.39,8.34,8.34,0,0,0-1-2.76c-.79-1.23-.66-2.28.85-3.1.35-.2.76-.43.81-.85,2.1-1.19,3.61-2.87,5.44-4.3,3.94-3.07,7.8-6.21,11.7-9.32a42.31,42.31,0,0,0,5-3.94L342,318.91a2.56,2.56,0,0,1,.42-.28c.27-.12.39,0,.47.2s0,.13,0,.14c.21-.18-.16-.56.22-.74l.19-.2c-.11,2.9.11,5.79-.18,8.69-.4-1.86,0-3.72-.18-5.35v23.88c0,.85.05,1.7-.05,2.54a45.86,45.86,0,0,0-.08,5.11c0,3.93,0,7.85,0,11.78-.18,9.87-.13,19.74-.14,29.6a10.77,10.77,0,0,1,0,1.27c-.23,2.15,0,4.32-.11,6.48,0,.42.15.89-.33,1.24Z" transform="translate(-297.97 -243.04)"/><path class="cls-102" d="M325.19,332.48a15.71,15.71,0,0,1-5,3.94A48.72,48.72,0,0,1,325.19,332.48Z" transform="translate(-297.97 -243.04)"/><path class="cls-103" d="M343,318.23l-.09.9-.58-.5C342.54,318.44,342.65,318.19,343,318.23Z" transform="translate(-297.97 -243.04)"/><path class="cls-104" d="M409.07,399.81a5.39,5.39,0,0,1,3,2.48A21.38,21.38,0,0,1,409.07,399.81Z" transform="translate(-297.97 -243.04)"/><path class="cls-105" d="M437.06,417.82c.45-.53,1.11-.48,1.78-.44A4.33,4.33,0,0,1,437.06,417.82Z" transform="translate(-297.97 -243.04)"/><path class="cls-106" d="M448.61,414.76c.29-.52.84-.53,1.42-.47A3.23,3.23,0,0,1,448.61,414.76Z" transform="translate(-297.97 -243.04)"/><path class="cls-20" d="M445,415.83c.1-.44.41-.38.76-.23A.89.89,0,0,1,445,415.83Z" transform="translate(-297.97 -243.04)"/><path class="cls-16" d="M452.69,413.37c.1-.42.36-.54.81-.28A1.35,1.35,0,0,1,452.69,413.37Z" transform="translate(-297.97 -243.04)"/><path class="cls-107" d="M310.16,372.88c.4-.24.13-.89.78-.92s.46.54.72.81c.55.58.38.71-1,.8A1.12,1.12,0,0,1,310.16,372.88Z" transform="translate(-297.97 -243.04)"/><path class="cls-108" d="M301.39,354a3.58,3.58,0,0,1,1,2.76A13.43,13.43,0,0,1,301.39,354Z" transform="translate(-297.97 -243.04)"/><path class="cls-20" d="M324.27,389.84c.66.18,1.12.5,1.16,1.1l-1-.75Z" transform="translate(-297.97 -243.04)"/><path class="cls-46" d="M320.71,386.28c.6.11.91.4.86.91A1.93,1.93,0,0,1,320.71,386.28Z" transform="translate(-297.97 -243.04)"/><path class="cls-55" d="M309.53,371.81c.79.07.49.56.55.91A1.47,1.47,0,0,1,309.53,371.81Z" transform="translate(-297.97 -243.04)"/><path class="cls-109" d="M305.65,364.7c.63.26.63.72.59,1.19A2,2,0,0,1,305.65,364.7Z" transform="translate(-297.97 -243.04)"/><path class="cls-110" d="M304.62,362a1,1,0,0,1,.23,1,1.51,1.51,0,0,1-.47-1Q304.5,361.85,304.62,362Z" transform="translate(-297.97 -243.04)"/><path class="cls-111" d="M304.62,362h-.24l-.36-.86C304.49,361.3,304.56,361.65,304.62,362Z" transform="translate(-297.97 -243.04)"/><path class="cls-50" d="M342.5,394.46q0-10.9,0-21.82c0-2.65,0-5.31,0-8a42.21,42.21,0,0,0,.13-5.51c0-1,0-2,0-3,0-.17.15-.23.36-.17q-.11,14.07-.19,28.15c0,3.43,0,6.87-.08,10.3C342.64,394.55,342.57,394.56,342.5,394.46Z" transform="translate(-297.97 -243.04)"/><path class="cls-32" d="M342.74,345.33V320.24h.31v6.48q0,9.3-.07,18.61Q342.86,345.48,342.74,345.33Z" transform="translate(-297.97 -243.04)"/><path class="cls-5" d="M342.74,345.33H343c0,3.56,0,7.11,0,10.67h-.23a53.7,53.7,0,0,1,0-8.22Z" transform="translate(-297.97 -243.04)"/><path class="cls-112" d="M342.5,394.46h.2c0,2.89,0,5.77,0,8.66,0,.49-.13.69-.74.4a.29.29,0,0,0-.09-.16l.07-.09c.6-.26.34-.71.36-1.09.1-2.2-.16-4.4.14-6.6Z" transform="translate(-297.97 -243.04)"/><path class="cls-113" d="M338.83,401.37c.5,0,.82.12.85.56A1.6,1.6,0,0,1,338.83,401.37Z" transform="translate(-297.97 -243.04)"/><path class="cls-114" d="M448.56,289.53c.24-.61-.53-.72-.85-1-1.28-1.07-2.33-2.34-4-3.11a3.64,3.64,0,0,1-1.16-1.21,8.57,8.57,0,0,0-3.17-2.3c-.4-.2-.63-.44-.42-.84.81.39,1.48.78,2.51.12a4.43,4.43,0,0,1,2.48-.1c.66.09.43,1.41-.34,2-.21-.31-.06-.73-.39-1s-.57-.45-.93-.19-.12.53.13.77.87.18,1.19.44c-.18,1.82.39,2.19,2.37,1.67a5.13,5.13,0,0,1,2.13-.16c1.17.22.36.92.39,1.63-.25-.35-.38-.54-.52-.72a1.28,1.28,0,0,0-1.23-.53.67.67,0,0,0-.66.61.92.92,0,0,0,.81,1c.92.13,1.23.39,1.08,1.19-.06.31.65.67,1.15.82s.61.42.44.77S449,289.69,448.56,289.53Z" transform="translate(-297.97 -243.04)"/><path class="cls-115" d="M462.8,302.22l-.53-.24-1.38-1.33C462,300.83,462.88,301.12,462.8,302.22Z" transform="translate(-297.97 -243.04)"/><path class="cls-116" d="M434.57,246.18l1.11,0c.15.18.33.35.46.54s.31.35.06.48-.64.1-.7-.12C435.37,246.65,434.9,246.47,434.57,246.18Z" transform="translate(-297.97 -243.04)"/><path class="cls-70" d="M435.4,278.86c.81.05.4.76.92,1-.75-.08-.94-.47-.92-1Z" transform="translate(-297.97 -243.04)"/><path class="cls-72" d="M454.47,294.14c.25,0,.37,0,.3.14a.57.57,0,0,1-.37.23c-.1,0-.24-.05-.36-.09Z" transform="translate(-297.97 -243.04)"/><path class="cls-72" d="M455.41,295.76a1.59,1.59,0,0,1,.51-.33c.16,0,.13.13.08.23s-.31.38-.59.09Z" transform="translate(-297.97 -243.04)"/><path class="cls-117" d="M422.81,319.78l0-.68c.34-.27.92-.6,1,0,.1.92.7,1.7.69,2.66q-.09,12.72,0,25.42c0,.9-.19,1.45-1.39,1.5-.27-.38-.13-.79-.13-1.19q0-13.25,0-26.49A2.15,2.15,0,0,0,422.81,319.78Z" transform="translate(-297.97 -243.04)"/><path class="cls-118" d="M438.4,316.66v36.22c-.43-.33-.25-.77-.25-1.15q0-17,0-33.92C438.15,317.42,438,317,438.4,316.66Z" transform="translate(-297.97 -243.04)"/><path class="cls-119" d="M422.81,319.78c.45.38.24.85.24,1.27q0,13.8,0,27.61c-.14.65.26,1.35-.25,2Q422.82,335.21,422.81,319.78Z" transform="translate(-297.97 -243.04)"/><path class="cls-120" d="M422.25,384.9h3.55l16.22.05c.78.36,1.62.07,2.43.18a2.72,2.72,0,0,1-2,.2c-5.27-.43-10.55-.07-15.82-.21C425.2,385.07,423.7,385.37,422.25,384.9Z" transform="translate(-297.97 -243.04)"/><path class="cls-121" d="M483.39,385.13c3.72,0,7.45,0,11.17,0,.37,0,1-.26,1.07.35a11.58,11.58,0,0,0-3.22-.15c-2.58,0-5.16,0-7.74,0C484.24,385.33,483.76,385.46,483.39,385.13Z" transform="translate(-297.97 -243.04)"/><path class="cls-120" d="M452.13,385.12c1.65.09,3.33-.24,5,.2C455.44,385.25,453.76,385.58,452.13,385.12Z" transform="translate(-297.97 -243.04)"/><path class="cls-120" d="M448.56,385.12h2.19A2.51,2.51,0,0,1,448.56,385.12Z" transform="translate(-297.97 -243.04)"/><path class="cls-122" d="M342.72,347.77c0,2.74,0,5.48,0,8.22,0,2.51,0,5,0,7.53,0,.38.17.82-.25,1.15,0-5.28,0-10.57,0-15.85C342.47,348.46,342.33,348.07,342.72,347.77Z" transform="translate(-297.97 -243.04)"/><path class="cls-123" d="M342.46,395.57c0,2.25,0,4.5,0,6.75,0,.33.34.86-.48.94.49-1.7.08-3.42.24-5.12C342.28,397.28,341.89,396.39,342.46,395.57Z" transform="translate(-297.97 -243.04)"/><path class="cls-31" d="M442.88,283.18c-.61-.15-1.16-.42-1.17-1.09a.69.69,0,0,1,.82-.7,1.27,1.27,0,0,1,1.32,1.19C443.89,283,443.44,283.16,442.88,283.18Z" transform="translate(-297.97 -243.04)"/></svg>